# xmcd
#
# Track frame offsets:
#	150
#	29298
#	55419
#	75992
#	91538
#	115410
#	133432
#	152430
#	172101
#	193048
#	215196
#	234719
#	259792
#	295439
#
# Disc length: 4218 seconds
#
# Revision: 12
# Processed by: cddbd v1.5.2PL0 Copyright (c) Steve Scherf et al.
# Submitted via: Jack! The Knife 20 Magnifico
#
DISCID=cc10780e
DTITLE=Jupiter - The History Of Genesis
DYEAR=2015
DGENRE=Metal
TTITLE0=The Birth Of Venus
TTITLE1=Last Moment
TTITLE2=Darkness
TTITLE3=B.L.A.S.T
TTITLE4=The Moon
TTITLE5=Koorinonakano Shoujo
TTITLE6=Church Candle
TTITLE7=Red Carnation
TTITLE8=Zetsubou Labyrinth
TTITLE9=Shining
TTITLE10=Arcadia
TTITLE11=Luminous
TTITLE12=The History Of Genesis
TTITLE13=Sacred Altar
EXTD=
EXTT0=
EXTT1=
EXTT2=
EXTT3=
EXTT4=
EXTT5=
EXTT6=
EXTT7=
EXTT8=
EXTT9=
EXTT10=
EXTT11=Hizaki
EXTT12=
EXTT13=
PLAYORDER=
